<svg width="497" height="496" viewBox="0 0 497 496" fill="none" xmlns="http://www.w3.org/2000/svg">
<g id="Group">
<g id="second">
<path id="Vector" d="M463.452 256.91H33.554C15.023 256.91 0 241.888 0 223.356V216.75C0 198.219 15.022 183.196 33.554 183.196H463.451C481.982 183.196 497.005 198.218 497.005 216.75V223.356C497.005 241.888 481.983 256.91 463.452 256.91V256.91Z" fill="#9E5528"/>
</g>
<g id="first">
<path id="Vector_2" d="M248.503 0.0039978C80.918 2.43 24.613 93.336 6.02399 146.156C-0.345009 164.255 13.234 183.196 32.422 183.196H248.503H464.582C483.911 183.196 497.317 164.064 490.871 145.841C472.17 92.976 415.756 2.425 248.503 0.0039978V0.0039978Z" fill="#FE9738"/>
<g id="Group_2">
<path id="Vector_3" d="M179.329 77.093C181.994 77.093 184.576 75.668 185.932 73.158L192.436 61.123C194.405 57.48 193.048 52.931 189.405 50.962C185.759 48.993 181.212 50.352 179.244 53.993L172.74 66.028C170.771 69.671 172.128 74.221 175.771 76.189C176.904 76.802 178.124 77.093 179.329 77.093Z" fill="black"/>
<path id="Vector_4" d="M255.911 70.416V56.736C255.911 52.595 252.554 49.238 248.413 49.238C244.272 49.238 240.915 52.595 240.915 56.736V70.416C240.915 74.557 244.272 77.914 248.413 77.914C252.554 77.914 255.911 74.557 255.911 70.416Z" fill="black"/>
<path id="Vector_5" d="M317.678 76.992C318.955 76.992 320.249 76.665 321.433 75.979C325.015 73.901 326.235 69.313 324.157 65.731L317.294 53.897C315.216 50.315 310.628 49.096 307.046 51.173C303.464 53.251 302.244 57.839 304.322 61.421L311.185 73.255C312.576 75.652 315.092 76.992 317.678 76.992V76.992Z" fill="black"/>
</g>
</g>
<g id="red">
<path id="Vector_6" d="M463.452 388.675H33.554C15.023 388.675 0 373.653 0 355.121V348.515C0 329.984 15.022 314.961 33.554 314.961H463.451C481.982 314.961 497.005 329.983 497.005 348.515V355.121C497.005 373.653 481.983 388.675 463.452 388.675V388.675Z" fill="#E94444"/>
</g>
<g id="green">
<path id="Vector_7" d="M464.238 328.326C464.238 345.078 444.773 354.16 431.831 343.523C426.511 339.15 420.228 335.686 410.271 335.686C383.291 335.686 383.291 357.058 356.311 357.058C329.33 357.058 329.33 335.686 302.35 335.686C275.371 335.686 275.371 357.058 248.391 357.058C221.412 357.058 221.412 335.686 194.433 335.686C167.452 335.686 167.452 357.058 140.472 357.058C113.493 357.058 113.493 335.686 86.513 335.686C76.56 335.686 70.279 339.149 64.961 343.519C52.018 354.155 32.553 345.076 32.553 328.323V288.677H464.239V328.326H464.238Z" fill="#BBEC6C"/>
</g>
<g id="fourth">
<path id="Vector_8" d="M463.452 388.675H248.503H33.554C33.554 388.675 18.729 460.262 103.093 488.425C117.545 493.249 132.632 495.495 147.762 495.495H248.503H349.243C364.373 495.495 379.46 493.249 393.912 488.425C478.277 460.262 463.452 388.675 463.452 388.675Z" fill="#FE9738"/>
</g>
<g id="third">
<path id="Vector_9" d="M32.768 256.91V288.972H79.047C88.675 288.972 96.479 296.777 96.479 306.404V398.745C96.479 411.054 106.457 421.032 118.766 421.032C131.075 421.032 141.053 411.054 141.053 398.745V306.404C141.053 296.776 148.858 288.972 158.485 288.972H464.237V256.91H32.768Z" fill="#FEE45A"/>
</g>
</g>
</svg>
